<svg width="33" height="32" viewBox="0 0 33 32" fill="none" xmlns="http://www.w3.org/2000/svg">
<path fill-rule="evenodd" clip-rule="evenodd" d="M16.5 7.91919C17.3033 7.91919 17.9545 8.57041 17.9545 9.37374V14.5455H23.1263C23.9296 14.5455 24.5808 15.1967 24.5808 16C24.5808 16.8033 23.9296 17.4545 23.1263 17.4545H17.9545V22.6263C17.9545 23.4296 17.3033 24.0808 16.5 24.0808C15.6967 24.0808 15.0455 23.4296 15.0455 22.6263V17.4545H9.87373C9.07041 17.4545 8.41919 16.8033 8.41919 16C8.41919 15.1967 9.07041 14.5455 9.87373 14.5455H15.0455V9.37374C15.0455 8.57041 15.6967 7.91919 16.5 7.91919Z" fill="black"/>
<path fill-rule="evenodd" clip-rule="evenodd" d="M16.5 2.90909C9.27009 2.90909 3.40909 8.77009 3.40909 16C3.40909 23.2299 9.27009 29.0909 16.5 29.0909C23.7299 29.0909 29.5909 23.2299 29.5909 16C29.5909 8.77009 23.7299 2.90909 16.5 2.90909ZM0.5 16C0.5 7.16344 7.66344 0 16.5 0C25.3366 0 32.5 7.16344 32.5 16C32.5 24.8366 25.3366 32 16.5 32C7.66344 32 0.5 24.8366 0.5 16Z" fill="black"/>
</svg>
