<svg width="32" height="32" viewBox="0 0 32 32" fill="none" xmlns="http://www.w3.org/2000/svg">
<path fill-rule="evenodd" clip-rule="evenodd" d="M15.9998 10.8283C14.4825 10.8283 13.2524 12.0584 13.2524 13.5758C13.2524 15.0932 14.4825 16.3233 15.9998 16.3233C17.5172 16.3233 18.7473 15.0932 18.7473 13.5758C18.7473 12.0584 17.5172 10.8283 15.9998 10.8283ZM10.3433 13.5758C10.3433 10.4518 12.8758 7.91923 15.9998 7.91923C19.1239 7.91923 21.6564 10.4518 21.6564 13.5758C21.6564 16.6998 19.1239 19.2324 15.9998 19.2324C12.8758 19.2324 10.3433 16.6998 10.3433 13.5758Z" fill="black"/>
<path fill-rule="evenodd" clip-rule="evenodd" d="M16 0C11.5821 0 7.58013 1.79245 4.68629 4.68629C1.79245 7.58013 0 11.5821 0 16C0 20.4179 1.79245 24.4199 4.68629 27.3137C7.58013 30.2075 11.5821 32 16 32C20.4179 32 24.4199 30.2075 27.3137 27.3137C30.2075 24.4199 32 20.4179 32 16C32 11.5821 30.2075 7.58013 27.3137 4.68629C24.4199 1.79245 20.4179 0 16 0ZM23.0827 27.0116C21.1315 25.4785 18.6734 24.5657 16 24.5657C13.3266 24.5657 10.8684 25.4785 8.91731 27.0116C10.9592 28.328 13.3898 29.0909 16 29.0909C18.6102 29.0909 21.0408 28.328 23.0827 27.0116ZM6.74333 6.74333C9.11391 4.37275 12.3846 2.90909 16 2.90909C19.6154 2.90909 22.8861 4.37275 25.2567 6.74333C27.6273 9.11391 29.0909 12.3846 29.0909 16C29.0909 19.5533 27.6771 22.7737 25.378 25.1338C22.8607 22.9677 19.5823 21.6566 16 21.6566C12.4176 21.6566 9.13926 22.9677 6.62203 25.1338C4.32292 22.7737 2.90909 19.5533 2.90909 16C2.90909 12.3846 4.37275 9.11391 6.74333 6.74333ZM10.3433 13.5758C10.3433 10.4518 12.8758 7.91923 15.9998 7.91923C19.1239 7.91923 21.6564 10.4518 21.6564 13.5758C21.6564 16.6998 19.1239 19.2324 15.9998 19.2324C12.8758 19.2324 10.3433 16.6998 10.3433 13.5758ZM15.9998 10.8283C14.4825 10.8283 13.2524 12.0584 13.2524 13.5758C13.2524 15.0932 14.4825 16.3233 15.9998 16.3233C17.5172 16.3233 18.7473 15.0932 18.7473 13.5758C18.7473 12.0584 17.5172 10.8283 15.9998 10.8283Z" fill="black"/>
</svg>
